HIERARCHY
ROOT pelvis
{
  OFFSET 0 100 0
  CHANNELS 6 Xposition Yposition Zposition Zrotation Xrotation Yrotation
  JOINT pelvis_right_femur
  {
    OFFSET -10.78128 -3.44521 -0.5502486
    CHANNELS 3 Zrotation Xrotation Yrotation
    JOINT right_femur_tibia
    {
      OFFSET -0.8047443 -44.0398 -0.1307829
      CHANNELS 3 Zrotation Xrotation Yrotation
      JOINT right_tibia_foot
      {
        OFFSET 3.006224 -47.83518 -5
        CHANNELS 3 Zrotation Xrotation Yrotation
        End Site
        {
          OFFSET 0 -5 15
        }
      }
    }
  }
  JOINT pelvis_left_femur
  {
    OFFSET 10.78128 -3.44521 -0.5502486
    CHANNELS 3 Zrotation Xrotation Yrotation
    JOINT left_femur_tibia
    {
      OFFSET 0.8047443 -44.0398 -0.1307829
      CHANNELS 3 Zrotation Xrotation Yrotation
      JOINT left_tibia_foot
      {
        OFFSET -4.370144 -48.10324 -4.275266
        CHANNELS 3 Zrotation Xrotation Yrotation
        End Site
        {
          OFFSET 0 -5 15
        }
      }
    }
  }
  JOINT pelvis_spine1
  {
    OFFSET 0 6.468898 -3.129235
    CHANNELS 3 Zrotation Xrotation Yrotation
    JOINT spine1
    {
      OFFSET 0 23.15396 4.99043
      CHANNELS 3 Zrotation Xrotation Yrotation
      JOINT spine2
      {
        OFFSET 0 20.79997 -5.064912
        CHANNELS 3 Zrotation Xrotation Yrotation
        JOINT neck
        {
          OFFSET 0 14.38658 9.616178
          CHANNELS 3 Zrotation Xrotation Yrotation
          End Site
          {
            OFFSET 0 20 0
          }
        }
      }
      JOINT right_manubrium
      {
        OFFSET -5.722621 16.35077 3.967754
        CHANNELS 3 Zrotation Xrotation Yrotation
        JOINT right_clavicle
        {
          OFFSET -13.16364 1.694482 -4.693211
          CHANNELS 3 Zrotation Xrotation Yrotation
          JOINT right_humerus
          {
            OFFSET -28.5034 -0.3100689 -2.792744
            CHANNELS 3 Zrotation Xrotation Yrotation
            JOINT right_radius
            {
              OFFSET -25.15693 0.02248979 -1.271978
              CHANNELS 3 Zrotation Xrotation Yrotation
              End Site
              {
                OFFSET -15 0 0
              }
            }
          }
        }
      }
      JOINT left_manubrium
      {
        OFFSET 5.722621 16.35077 3.967754
        CHANNELS 3 Zrotation Xrotation Yrotation
        JOINT left_clavicle
        {
          OFFSET 13.16364 1.694482 -4.693211
          CHANNELS 3 Zrotation Xrotation Yrotation
          JOINT left_humerus
          {
            OFFSET 29.39168 -1.063119 -2.237045
            CHANNELS 3 Zrotation Xrotation Yrotation
            JOINT left_radius
            {
              OFFSET 24.59957 -0.9528479 0.9047498
              CHANNELS 3 Zrotation Xrotation Yrotation
              End Site
              {
                OFFSET 15 -0 -0
              }
            }
          }
        }
      }
    }
  }
}
MOTION
Frames: 23
Frame Time: 0.0416666666667
1923.141 99.99435 1359.193 -0.03707347 -1.729694 107.1416 4.345055 -36.65071 -4.988907 -0 2.844788 -0 -11.04672 7.606108 -0.7022822 -3.652664 19.57944 -7.197643 -0 11.39231 -0 -3.46144 -23.11808 8.791567 0.07642262 -1.659374 1.144969 2.880057 10.0806 -9.606872 0.706312 20.9568 6.864496 2.876448 -24.97065 7.2378 -1.373326 -18.28547 11.63654 95.37754 23.11333 -26.26321 -0 0 4.707377 -19.85549 8.906183 10.21583 6.147787 -27.385 -5.728798 -82.57591 19.27376 9.764499 0 0 -37.37185 5.817455 14.45648 6.365107
1930.014 98.72269 1357.375 0.4188685 -1.535554 107.7746 4.46631 -35.1021 -4.897347 -0 2.601628 -0 -12.0491 8.5249 -1.236114 -3.616733 20.03949 -6.351687 -0 13.08386 -0 -3.242507 -22.25968 8.764598 0.3726335 -2.178148 1.150725 2.800067 10.27919 -9.673839 0.8903629 21.17494 6.268419 2.286765 -25.11121 7.087653 -2.546958 -18.6695 11.47789 96.87791 21.50404 -26.79537 -0 0 3.673134 -20.27752 8.267527 10.46547 5.352595 -27.55898 -6.121929 -82.15664 19.01566 9.840138 0 0 -38.10897 5.017955 14.28535 7.597338
1937.082 97.67965 1355.491 0.9916766 -1.269237 108.3765 4.795076 -32.57546 -4.246754 -0 3.515061 -0 -12.94613 8.578947 -2.023233 -3.633584 20.26064 -6.040217 -0 15.81415 -0 -2.913918 -20.90986 9.184546 0.649332 -2.750301 1.242686 2.70263 10.35297 -9.634622 1.153818 21.53097 5.587466 1.617231 -25.2167 7.029105 -3.624149 -18.98861 11.25363 98.23475 20.08811 -27.1271 -0 0 2.81814 -20.09538 7.541188 10.39213 4.463834 -27.34745 -6.356652 -82.10759 19.35795 10.26139 0 0 -38.06159 4.027682 14.24952 9.120697
1944.187 97.01838 1353.599 1.660466 -0.9752278 108.8851 5.354214 -29.02663 -2.983089 -0 5.774823 -0 -13.58922 7.439281 -3.080029 -3.664369 19.99591 -6.438627 -0 20.24511 -0 -2.749208 -18.89263 9.943501 0.9118393 -3.243692 1.421469 2.587837 10.212 -9.437389 1.490574 22.02979 4.892791 0.9478722 -25.2034 7.093306 -4.367705 -19.0811 10.99739 99.17601 19.1872 -27.15124 -0 0 2.295441 -19.17166 6.883609 9.928446 3.563172 -26.60477 -6.33231 -82.59334 20.49872 11.07232 0 0 -36.88031 2.844655 14.40238 10.90376
1951.114 96.90642 1351.771 2.334726 -0.7379313 109.2192 6.0944 -24.63056 -1.19142 -0 9.293475 -0 -13.75135 4.739025 -4.264098 -3.662858 18.735 -7.651253 -0 27.13086 -0 -3.152882 -16.07827 10.79042 1.140255 -3.40167 1.699217 2.466563 9.773883 -9.02503 1.834564 22.62327 4.372061 0.4696111 -24.95321 7.303135 -4.350716 -18.71868 10.8057 99.20915 19.39529 -26.71022 -0 0 2.345925 -17.47592 6.600479 9.067891 2.826982 -25.22566 -5.929567 -83.8119 22.4839 12.30369 0 0 -34.19995 1.643626 14.75411 12.65859
1957.623 97.4497 1350.067 2.802746 -0.644618 109.3051 6.8274 -19.9429 0.7484289 -0 13.16811 -0 -13.20394 0.4251868 -5.090834 -3.630218 15.6247 -9.403466 -0 36.73729 -0 -4.424046 -12.59784 11.35163 1.244496 -2.87749 2.144133 2.364895 9.089501 -8.384384 2.004184 23.14873 4.358744 0.4942746 -24.39771 7.618595 -3.078967 -17.7494 10.83384 97.7278 21.4951 -25.61739 -0 0 3.198317 -15.32611 7.10657 7.999077 2.513605 -23.35138 -5.105671 -85.78434 24.83468 13.9111 0 0 -30.05811 0.9750259 15.11331 13.62275
1963.564 98.56364 1348.466 2.830001 -0.6185068 109.1385 7.172717 -15.53164 2.17925 -0 15.5323 -0 -11.99191 -4.602603 -4.82966 -3.644069 9.82849 -10.75891 -0 47.61447 -0 -6.114165 -9.068566 11.47403 1.038618 -1.569069 2.943123 2.284285 8.538767 -7.620914 1.765104 23.33768 5.091402 1.224417 -23.71479 7.859984 -0.5913862 -16.50766 11.17543 94.64099 25.75485 -23.75653 -0 0 4.801485 -13.56757 8.526108 7.25425 2.744686 -21.57571 -4.058699 -87.95514 26.32285 15.74144 0 0 -25.55047 1.623912 14.86537 12.85846
1969.012 99.92747 1346.859 2.56953 -0.3258365 108.824 6.773196 -10.99425 2.691143 -0 15.17469 -0 -10.72006 -8.568499 -3.388961 -3.615619 1.674449 -10.67498 -0 56.08487 -0 -6.864426 -6.371501 11.67513 0.4282911 -0.08859809 4.244911 2.115394 8.696319 -6.925579 1.16752 23.06786 6.141771 2.278157 -23.29083 7.776378 1.900491 -16.0234 11.71653 91.12609 30.74388 -21.30206 -0 0 6.778646 -13.1665 10.19022 7.505268 3.175283 -20.58816 -3.223238 -89.33583 25.87418 17.71348 0 0 -22.49937 3.503279 13.37236 10.65673
1974.187 101.156 1345.166 2.64976 0.3742192 108.4928 5.887722 -5.486131 2.602692 -0 13.29784 -0 -10.02731 -10.63076 -1.874921 -3.128586 -6.79069 -9.168778 -0 58.70693 -0 -5.968653 -4.8944 12.63677 -0.2737976 0.7043738 5.714576 1.72198 9.605475 -6.373981 0.6779977 22.62285 6.558504 2.818982 -23.13315 7.334982 2.94494 -17.01898 12.20368 88.69612 33.86902 -18.65985 -0 0 8.982337 -14.29801 11.27353 8.811376 3.271934 -20.3231 -2.905576 -89.68044 24.0258 19.89886 0 0 -21.34348 5.175442 11.33522 8.819699
1979.24 102.0034 1343.397 3.379054 1.125966 108.1831 5.212677 0.4616092 2.394026 -0 11.69005 -0 -9.757758 -11.67057 -1.238966 -1.987294 -13.52604 -7.148192 -0 55.22462 -0 -4.232695 -4.342962 14.24528 -0.6408283 0.7345466 6.739717 1.167302 10.66625 -5.900785 0.618535 22.33948 6.027361 2.522499 -22.82456 6.781758 2.462227 -18.9863 12.44982 87.47614 34.07467 -15.96291 -0 0 11.56999 -16.25114 11.82384 10.52061 3.019286 -20.15691 -3.012607 -89.65886 22.12005 22.10917 0 0 -20.65777 5.770583 10.27456 8.17661
1984.227 102.3686 1341.577 4.547141 1.600302 107.8476 5.059931 5.789392 2.163478 -0 10.8337 -0 -9.504083 -12.64611 -1.446991 -0.4487216 -17.96872 -5.346864 -0 47.65247 -0 -2.550833 -4.288906 15.97249 -0.5921702 0.4075474 7.112546 0.6167877 11.44803 -5.458842 0.9168423 22.25513 4.946499 1.690699 -22.16056 6.349999 1.215927 -21.11458 12.44454 86.88486 32.15988 -13.20855 -0 0 14.50862 -18.32782 12.29482 12.10633 2.723526 -19.77321 -3.303345 -89.83144 20.66337 24.10112 0 0 -19.2215 5.612029 10.6853 8.147403
1989.177 102.222 1339.722 5.900204 1.749693 107.4185 5.333201 10.13958 1.785526 -0 10.54692 -0 -9.160105 -13.90497 -2.122073 1.126373 -20.43836 -4.126075 -0 38.09062 -0 -1.359084 -4.462242 17.46958 -0.2686661 0.004875621 6.957551 0.1665512 11.82046 -5.014114 1.396991 22.34019 3.759867 0.7215213 -21.1392 6.128714 -0.1820359 -22.93134 12.25287 86.54552 29.1686 -10.47937 -0 0 17.54305 -20.23616 12.91108 13.34535 2.592482 -19.18222 -3.641293 -90.45491 19.61077 25.81285 0 0 -16.54387 5.146596 12.34816 8.154783
1994.118 101.6012 1337.831 7.156735 1.668861 106.8506 5.732495 13.53376 1.087395 -0 10.6203 -0 -8.833727 -15.46485 -2.824 2.377536 -21.45098 -3.741306 -0 28.2465 -0 -0.9308305 -4.741656 18.58185 0.1029171 -0.3095678 6.481188 -0.1487753 11.67885 -4.508012 1.871708 22.6277 2.896569 0.05495434 -19.78629 6.112412 -1.222113 -24.05541 11.93273 86.05657 26.1754 -7.862611 -0 0 20.2321 -21.82858 13.58252 14.07641 2.773836 -18.48648 -3.943049 -91.65704 18.87018 27.14597 0 0 -12.4346 4.70581 14.80507 7.835486
1999.097 100.624 1335.87 7.951694 1.537332 106.1532 5.79889 16.11573 -0.03209577 -0 11.02283 -0 -8.736518 -17.03975 -3.023595 2.949328 -21.58594 -4.381921 -0 19.50011 -0 -1.341872 -5.050429 19.35975 0.2550632 -0.4359148 5.931503 -0.3594742 10.94997 -3.862528 2.127416 23.14407 2.807762 0.1749392 -18.16894 6.222802 -1.413448 -24.15574 11.51681 84.88632 24.44491 -5.418593 -0 0 21.9991 -22.98051 13.95498 14.21958 3.387288 -17.80005 -4.119478 -93.36763 18.26714 27.9242 0 0 -7.052894 4.681327 17.27409 6.830564
2004.205 99.487 1333.749 8.030443 1.5952 105.3933 5.042687 18.18284 -1.506936 -0 12.09993 -0 -9.077377 -17.94906 -2.247409 2.559416 -21.33149 -6.123531 -0 12.86949 -0 -2.385729 -5.286325 20.09158 -0.0001139806 -0.3598949 5.537516 -0.5932928 9.706889 -2.98357 2.016159 23.871 3.788963 1.397217 -16.40434 6.361694 -0.5121501 -23.10984 10.96982 82.69034 25.01825 -3.128803 -0 0 22.31004 -23.73043 13.57519 13.92303 4.451581 -17.15999 -4.093913 -95.24502 17.54501 27.96617 0 0 -1.008527 5.430439 18.82307 4.893278
2009.575 98.44803 1331.349 7.550125 2.017681 104.675 3.261974 20.10024 -3.026633 -0 14.66986 -0 -9.956507 -17.09433 -0.3627966 1.15718 -20.83717 -8.808973 -0 8.997342 -0 -3.602438 -5.338179 21.12225 -0.5925667 -0.1920477 5.396327 -1.045641 8.322337 -1.825775 1.618191 24.70953 5.664909 3.517813 -14.73466 6.517223 1.12803 -21.25295 10.23178 79.93283 27.83453 -0.9760726 -0 0 21.02604 -24.42783 12.23858 13.65387 5.761522 -16.49536 -3.875242 -96.74151 16.49418 27.29174 -0 0 4.598992 6.946071 18.86949 2.279503
2015.336 97.77454 1328.625 7.159239 2.712686 104.1156 0.9087421 21.884 -4.057668 -0 19.64681 -0 -11.30212 -13.40084 2.118964 -0.841467 -19.83948 -11.79432 -0 8.124719 -0 -4.490607 -5.208059 22.3783 -1.149541 -0.1257786 5.375216 -1.805932 7.462946 -0.5475352 1.316536 25.47305 7.564737 5.619141 -13.60416 6.786209 2.486466 -19.4514 9.436474 78.18673 30.99061 0.5950458 -0 0 18.77493 -25.45473 10.28389 13.91223 6.823869 -15.76503 -3.634596 -97.36706 15.27192 26.3289 -0 0 8.338622 8.600881 17.75662 0.03782456
2021.467 97.65647 1325.699 7.442761 3.324237 103.8161 -1.007381 22.73916 -4.163299 -0 26.95343 -0 -12.77155 -6.994985 4.115641 -2.642426 -18.05474 -13.95738 -0 9.929902 -0 -4.778277 -5.194398 23.14811 -1.358904 -0.2243697 5.195568 -2.629755 7.613397 0.4094504 1.50922 25.96076 8.358135 6.610171 -13.47538 7.162716 2.633264 -18.52371 8.981801 78.95856 31.8155 0.6630843 -0 0 16.71536 -26.52686 8.395172 14.59115 7.119195 -15.16072 -3.621704 -97.01401 14.67513 25.59107 -0 0 9.145765 9.495256 16.60431 -0.5796252
2027.75 98.12936 1322.801 8.189993 3.631426 103.8274 -1.793049 21.69526 -3.451977 -0 34.87082 -0 -13.7412 0.1698959 4.765015 -3.773682 -15.65316 -14.54862 -0 13.19884 -0 -4.459834 -5.777462 22.87503 -1.404997 -0.3226655 4.76672 -3.066171 8.527681 0.6124392 2.091877 26.0516 7.808362 6.305807 -14.3568 7.402789 1.804198 -18.46936 9.098924 81.61322 29.82844 -0.7844694 -0 0 15.51137 -26.83704 7.112201 14.99761 6.634061 -15.00644 -3.90364 -96.03483 15.42536 25.05558 -0 0 7.305222 9.274185 16.04107 0.6093116
2033.947 99.08275 1320.053 8.786297 3.772979 104.142 -1.73135 19.01644 -2.483445 -0 41.51571 -0 -13.87683 5.960317 4.22459 -4.419715 -13.06745 -13.97688 -0 16.26637 -0 -3.754092 -7.005652 21.93494 -1.616678 -0.3056524 4.289015 -2.997495 9.564657 0.1220252 2.57696 25.80978 6.811649 5.477478 -15.67692 7.392162 0.9730563 -18.7174 9.562297 84.25944 27.1432 -2.788536 -0 0 14.86364 -26.32754 6.580936 14.84506 5.87474 -15.35928 -4.310502 -94.90754 17.01507 24.41886 -0 0 4.315623 8.43409 15.68929 2.517035
2039.95 100.3507 1317.443 9.066834 3.913784 104.7092 -1.435851 15.76523 -1.693363 -0 46.41292 -0 -13.47172 9.77297 3.235212 -4.851996 -10.57081 -13.11064 -0 18.23736 -0 -2.963205 -8.403496 20.95912 -1.959023 -0.2340737 3.895286 -2.681057 10.39584 -0.6422709 2.754181 25.45368 6.104015 4.755092 -16.83465 7.277645 0.5768686 -18.90428 10.06697 86.11806 25.2768 -4.714436 -0 0 14.30722 -25.65461 6.585046 14.46425 5.237489 -15.9792 -4.69851 -93.85125 18.426 23.6165 -0 0 1.435119 7.644884 15.26289 4.082801
2045.729 101.7929 1314.924 9.171717 4.074121 105.4652 -1.169147 12.50258 -1.167858 -0 49.94264 -0 -12.92548 12.01383 2.242349 -5.153225 -8.221521 -12.39942 -0 19.14542 -0 -2.211175 -9.613068 20.17431 -2.28047 -0.1644934 3.536396 -2.319662 11.00887 -1.403861 2.725322 25.1489 5.742281 4.25676 -17.59921 7.161497 0.541359 -18.95417 10.51946 87.30805 24.24586 -6.371503 -0 0 13.69342 -25.16819 6.837612 14.1322 4.786512 -16.65751 -5.053127 -92.86287 19.29228 22.66568 0 0 -0.9678184 7.179616 14.92143 4.97469
2051.264 103.3067 1312.471 9.210365 4.230285 106.3531 -0.948239 9.280265 -0.8526384 -0 52.46786 -0 -12.44278 13.15962 1.362885 -5.343862 -5.941536 -11.93802 -0 19.2517 -0 -1.484634 -10.59957 19.57269 -2.527079 -0.1062741 3.14409 -1.963804 11.46723 -2.101255 2.602419 24.94311 5.585709 3.916829 -18.02088 7.062931 0.7179256 -18.89075 10.93239 88.07659 23.71389 -7.783729 -0 0 13.01829 -24.85962 7.177979 13.89473 4.47644 -17.32715 -5.396541 -91.90889 19.70467 21.57157 0 0 -2.975452 7.0405 14.8194 5.250504
